<?xml version="1.0" standalone="no"?>
<!DOCTYPE svg PUBLIC "-//W3C//DTD SVG 20010904//EN"
 "http://www.w3.org/TR/2001/REC-SVG-20010904/DTD/svg10.dtd">
<svg version="1.0" xmlns="http://www.w3.org/2000/svg"
 width="16.000000pt" height="16.000000pt" viewBox="0 0 16.000000 16.000000"
 preserveAspectRatio="xMidYMid meet">

<g transform="translate(0.000000,16.000000) scale(0.100000,-0.100000)"
fill="#000000" stroke="none">
<path d="M43 115 c-9 -10 -8 -14 8 -18 11 -3 18 -11 17 -18 -2 -7 3 -13 10
-14 8 0 19 -8 26 -17 7 -10 16 -15 19 -11 4 3 -1 12 -11 19 -9 7 -17 18 -17
26 0 7 -6 13 -14 13 -8 0 -17 7 -20 16 -5 14 -8 14 -18 4z"/>
</g>
</svg>
