<?xml version="1.0" standalone="no"?>
<!DOCTYPE svg PUBLIC "-//W3C//DTD SVG 20010904//EN"
 "http://www.w3.org/TR/2001/REC-SVG-20010904/DTD/svg10.dtd">
<svg version="1.0" xmlns="http://www.w3.org/2000/svg"
 width="50.000000pt" height="50.000000pt" viewBox="0 0 320.000000 320.000000"
 preserveAspectRatio="xMidYMid meet">

<g transform="translate(0.000000,320.000000) scale(0.100000,-0.100000)"
fill="#000000" stroke="none">
<path d="M1489 3160 c-407 -51 -732 -343 -831 -747 -32 -132 -30 -289 6 -408
96 -321 441 -844 914 -1384 l22 -26 36 40 c83 91 264 314 375 460 296 390 483
723 540 961 35 144 17 330 -47 493 -61 154 -185 317 -316 419 -66 51 -186 116
-264 142 -131 46 -308 66 -435 50z m236 -414 c188 -50 328 -210 356 -406 21
-148 -34 -302 -147 -410 -239 -230 -618 -162 -767 138 l-42 85 0 121 c0 103 4
130 24 179 52 130 174 245 304 286 74 24 199 27 272 7z"/>
<path d="M1988 943 c-6 -8 -9 -15 -7 -17 2 -2 40 -9 84 -15 186 -29 376 -84
487 -143 32 -17 78 -52 103 -79 40 -42 45 -54 45 -94 0 -38 -6 -51 -36 -85
-100 -111 -368 -198 -725 -236 -212 -22 -606 -15 -801 15 -468 72 -716 222
-615 372 70 104 276 192 570 242 73 12 126 26 124 32 -6 15 -181 9 -302 -10
-361 -56 -540 -171 -539 -345 1 -139 123 -271 346 -374 154 -71 288 -111 503
-147 175 -30 549 -33 725 -6 456 71 794 246 865 447 44 123 -21 252 -162 323
-111 57 -333 106 -556 125 -77 6 -100 5 -109 -5z"/>
</g>
</svg>
